HIERARCHY
ROOT Hips
{
	OFFSET 0.000000 0.000000 0.000000 
	CHANNELS 6 Xposition Yposition Zposition Zrotation Yrotation Xrotation
	JOINT LHipJoint
	{
		OFFSET 0.000000 0.000000 0.000000 
		CHANNELS 3 Zrotation Yrotation Xrotation
		JOINT LeftUpLeg
		{
			OFFSET 1.656740 -1.802820 0.624770 
			CHANNELS 3 Zrotation Yrotation Xrotation
			JOINT LeftLeg
			{
				OFFSET 2.597200 -7.135760 0.000000 
				CHANNELS 3 Zrotation Yrotation Xrotation
				JOINT LeftFoot
				{
					OFFSET 2.492360 -6.847700 0.000000 
					CHANNELS 3 Zrotation Yrotation Xrotation
					JOINT LeftToeBase
					{
						OFFSET 0.197040 -0.541360 2.145810 
						CHANNELS 3 Zrotation Yrotation Xrotation
						End Site
						{
							OFFSET 0.000000 -0.000000 1.112490 
						}
					}
				}
			}
		}
	}
	JOINT RHipJoint
	{
		OFFSET 0.000000 0.000000 0.000000 
		CHANNELS 3 Zrotation Yrotation Xrotation
		JOINT RightUpLeg
		{
			OFFSET -1.610700 -1.802820 0.624760 
			CHANNELS 3 Zrotation Yrotation Xrotation
			JOINT RightLeg
			{
				OFFSET -2.595020 -7.129770 0.000000 
				CHANNELS 3 Zrotation Yrotation Xrotation
				JOINT RightFoot
				{
					OFFSET -2.467800 -6.780240 0.000000 
					CHANNELS 3 Zrotation Yrotation Xrotation
					JOINT RightToeBase
					{
						OFFSET -0.230240 -0.632580 2.133680 
						CHANNELS 3 Zrotation Yrotation Xrotation
						End Site
						{
							OFFSET -0.000000 -0.000000 1.115690 
						}
					}
				}
			}
		}
	}
	JOINT LowerBack
	{
		OFFSET 0.000000 0.000000 0.000000 
		CHANNELS 3 Zrotation Yrotation Xrotation
		JOINT Spine
		{
			OFFSET 0.019610 2.054500 -0.141120 
			CHANNELS 3 Zrotation Yrotation Xrotation
			JOINT Spine1
			{
				OFFSET 0.010210 2.064360 -0.059210 
				CHANNELS 3 Zrotation Yrotation Xrotation
				JOINT Neck
				{
					OFFSET 0.000000 0.000000 0.000000 
					CHANNELS 3 Zrotation Yrotation Xrotation
					JOINT Neck1
					{
						OFFSET 0.007130 1.567110 0.149680 
						CHANNELS 3 Zrotation Yrotation Xrotation
						JOINT Head
						{
							OFFSET 0.034290 1.560410 -0.100060 
							CHANNELS 3 Zrotation Yrotation Xrotation
							End Site
							{
								OFFSET 0.013050 1.625600 -0.052650 
							}
						}
					}
				}
				JOINT LeftShoulder
				{
					OFFSET 0.000000 0.000000 0.000000 
					CHANNELS 3 Zrotation Yrotation Xrotation
					JOINT LeftArm
					{
						OFFSET 3.542050 0.904360 -0.173640 
						CHANNELS 3 Zrotation Yrotation Xrotation
						JOINT LeftForeArm
						{
							OFFSET 4.865130 -0.000000 -0.000000 
							CHANNELS 3 Zrotation Yrotation Xrotation
							JOINT LeftHand
							{
								OFFSET 3.355540 -0.000000 0.000000 
								CHANNELS 3 Zrotation Yrotation Xrotation
								JOINT LeftFingerBase
								{
									OFFSET 0.000000 0.000000 0.000000 
									CHANNELS 3 Zrotation Yrotation Xrotation
									JOINT LeftHandIndex1
									{
										OFFSET 0.661170 -0.000000 0.000000 
										CHANNELS 3 Zrotation Yrotation Xrotation
										End Site
										{
											OFFSET 0.533060 -0.000000 0.000000 
										}
									}
								}
								JOINT LThumb
								{
									OFFSET 0.000000 0.000000 0.000000 
									CHANNELS 3 Zrotation Yrotation Xrotation
									End Site
									{
										OFFSET 0.541200 -0.000000 0.541200 
									}
								}
							}
						}
					}
				}
				JOINT RightShoulder
				{
					OFFSET 0.000000 0.000000 0.000000 
					CHANNELS 3 Zrotation Yrotation Xrotation
					JOINT RightArm
					{
						OFFSET -3.498020 0.759940 -0.326160 
						CHANNELS 3 Zrotation Yrotation Xrotation
						JOINT RightForeArm
						{
							OFFSET -5.026490 -0.000000 0.000000 
							CHANNELS 3 Zrotation Yrotation Xrotation
							JOINT RightHand
							{
								OFFSET -3.364310 -0.000000 0.000000 
								CHANNELS 3 Zrotation Yrotation Xrotation
								JOINT RightFingerBase
								{
									OFFSET 0.000000 0.000000 0.000000 
									CHANNELS 3 Zrotation Yrotation Xrotation
									JOINT RightHandIndex1
									{
										OFFSET -0.730410 -0.000000 0.000000 
										CHANNELS 3 Zrotation Yrotation Xrotation
										End Site
										{
											OFFSET -0.588870 -0.000000 0.000000 
										}
									}
								}
								JOINT RThumb
								{
									OFFSET 0.000000 0.000000 0.000000 
									CHANNELS 3 Zrotation Yrotation Xrotation
									End Site
									{
										OFFSET -0.597860 -0.000000 0.597860 
									}
								}
							}
						}
					}
				}
			}
		}
	}
}
MOTION
Frames: 7
Frame Time: 0.008333
8.653400 18.044500 -2.606400 1.914500 -0.082400 2.072300 0.000000 0.000000 0.000000 -28.893499 1.806700 16.810200 1.840500 8.525500 24.322100 0.541900 8.724000 13.583300 1.095600 -6.651600 -18.687201 0.000000 0.000000 0.000000 16.090700 23.064301 -34.655201 -9.078300 -16.857800 56.360500 -1.049000 -5.290700 -21.943501 -0.994000 6.345200 -17.789499 -2.399600 -4.041000 5.991900 0.644600 -5.521700 0.526800 2.434300 -2.723300 -2.514100 -1.084900 3.290700 -15.128700 -1.558100 4.507900 -4.209600 -0.060700 2.207100 1.215000 0.000000 0.000000 0.000000 -75.292000 -3.435600 52.477402 135.092407 -50.723202 -97.832802 -0.000000 0.000000 -28.721001 33.664902 1.198400 0.798100 -7.125000 0.000000 -0.000000 5.668200 31.389099 -1.894500 0.000000 0.000000 0.000000 77.249496 -47.314701 42.775299 -66.601501 57.826698 -39.884201 0.000000 -0.000000 -11.566100 -51.436298 35.985401 -36.390301 7.125000 -0.000000 -0.000000 -9.117700 18.850100 -11.692500 
8.655100 18.097601 -2.178900 2.446900 0.166700 2.232200 0.000000 0.000000 0.000000 -29.221901 2.105000 16.666000 2.076200 9.023000 25.867399 0.406800 8.999200 12.140400 1.143700 -6.790900 -19.097500 0.000000 0.000000 0.000000 15.570200 22.605101 -33.918900 -7.856100 -16.012400 52.042900 -1.110100 -4.799400 -22.176399 -1.156300 6.827000 -19.203899 -2.564500 -4.122000 5.498500 0.418600 -5.635900 0.410800 2.266300 -2.781400 -2.359100 -0.672700 3.338700 -15.445100 -1.981000 4.527200 -3.562100 -0.248700 2.192200 1.507300 0.000000 -0.000000 0.000000 -75.271202 -2.449500 53.292599 134.898605 -50.818100 -97.682701 -0.000000 0.000000 -29.087200 33.285599 0.943500 0.619300 -7.125000 0.000000 -0.000000 5.350700 31.082500 -1.827100 0.000000 -0.000000 0.000000 78.366096 -47.815899 41.666901 -67.747101 58.043598 -40.855000 0.000000 -0.000000 -11.389600 -50.983501 35.742500 -35.789101 7.125000 -0.000000 -0.000000 -8.981000 18.337099 -11.463900 
8.659400 18.143700 -1.757700 3.008800 0.355800 2.349500 0.000000 0.000000 0.000000 -29.536800 2.478200 16.250200 2.380900 9.618000 27.748400 0.210400 10.290700 10.229600 0.847700 -5.872200 -16.414200 0.000000 0.000000 0.000000 15.019500 22.173700 -33.136002 -6.756500 -15.123400 47.947300 -1.211400 -4.070200 -22.622000 -1.286100 7.186200 -20.268101 -2.719100 -4.158000 5.285400 0.195800 -5.696500 0.220200 2.119400 -2.807400 -2.441400 -2.222100 3.468500 -14.612000 -0.267500 4.906800 -4.072900 0.546900 2.454400 1.110200 -0.000000 -0.000000 0.000000 -75.223396 -1.334700 54.159801 134.727905 -50.901100 -97.550301 -0.000000 0.000000 -29.478701 32.952499 0.584400 0.378800 -7.125000 0.000000 -0.000000 5.065600 30.654499 -1.781100 -0.000000 -0.000000 0.000000 79.345398 -48.185398 40.718300 -68.888702 58.247101 -41.824699 0.000000 -0.000000 -11.364200 -51.130100 35.460400 -35.744400 7.125000 -0.000000 -0.000000 -9.154900 18.113199 -11.667900 
8.659600 18.173500 -1.340200 3.310400 0.448300 2.352700 0.000000 0.000000 0.000000 -29.552000 2.901000 15.799200 2.736000 10.254800 29.806000 0.001300 11.781900 8.282500 0.542200 -4.717900 -13.105700 0.000000 0.000000 0.000000 14.830000 21.923100 -32.094700 -5.792600 -14.224300 44.143600 -1.318800 -3.459500 -23.184799 -1.642200 8.077100 -22.948601 -2.663900 -4.188500 5.195300 0.014800 -5.738400 0.106200 1.905300 -2.826900 -2.530400 -3.846900 3.552400 -13.725000 1.444400 5.225800 -4.979400 1.336200 2.682800 0.582300 0.000000 -0.000000 0.000000 -75.048401 -0.167100 54.920399 134.497299 -51.012402 -97.371201 -0.000000 0.000000 -29.599300 32.891399 0.384800 0.248900 -7.125000 0.000000 -0.000000 5.005700 30.417601 -1.788400 0.000000 -0.000000 0.000000 80.237099 -48.251598 39.975201 -69.941299 58.423698 -42.720600 0.000000 -0.000000 -11.646200 -51.063000 35.505001 -35.709000 7.125000 -0.000000 -0.000000 -9.105600 18.124300 -11.604800 
8.663300 18.196899 -0.922300 3.647700 0.512700 2.256000 0.000000 0.000000 0.000000 -29.595400 3.361500 15.316500 3.148100 10.931000 32.047401 -0.131300 12.406100 6.806700 0.502600 -4.544800 -12.614600 0.000000 0.000000 0.000000 14.660500 21.585400 -30.849400 -4.968100 -13.347800 40.684700 -1.359700 -2.689700 -23.141100 -1.178300 6.889500 -19.388300 -2.644500 -4.212700 5.076500 -0.173700 -5.770600 0.129000 1.693300 -2.845700 -2.460300 -3.388700 3.487300 -14.023000 0.756900 5.082400 -4.740700 1.046400 2.588200 0.738800 0.000000 0.000000 0.000000 -74.943703 0.968600 55.584499 134.231293 -51.139500 -97.164299 -0.000000 0.000000 -29.505400 32.977402 0.072700 0.047200 -7.125000 0.000000 -0.000000 5.055200 30.047001 -1.851100 0.000000 0.000000 0.000000 81.100502 -48.081100 39.326698 -71.333000 58.641499 -43.907600 0.000000 -0.000000 -12.177500 -50.265800 35.088699 -34.666302 7.125000 -0.000000 -0.000000 -8.854200 17.236401 -11.189900 
8.673600 18.214600 -0.504500 4.070200 0.533100 2.136600 0.000000 0.000000 0.000000 -29.675501 3.968400 14.696800 3.625600 11.644800 34.486801 -0.205100 12.522100 5.710600 0.562800 -4.804800 -13.352700 0.000000 0.000000 0.000000 14.427200 21.087700 -29.641001 -4.295000 -12.543000 37.680901 -1.351100 -2.046300 -22.782101 -1.485700 7.700800 -21.808800 -2.767500 -4.214500 4.914200 -0.289700 -5.775500 0.240600 1.623200 -2.852100 -2.254300 -1.930300 3.499500 -14.795200 -1.182500 4.914800 -4.026700 0.216200 2.430000 1.186400 0.000000 0.000000 0.000000 -75.153000 2.020700 56.152000 134.013596 -51.242599 -96.994598 -0.000000 0.000000 -29.423401 32.909599 -0.067800 -0.043900 -7.125000 0.000000 -0.000000 4.993400 29.880501 -1.848200 0.000000 0.000000 0.000000 81.740196 -47.725300 38.828602 -72.721901 58.841400 -45.094898 0.000000 -0.000000 -12.555400 -49.981201 34.561501 -34.043800 7.125000 -0.000000 -0.000000 -8.893300 16.507099 -11.165700 
8.676400 18.222900 -0.079100 3.853700 0.648000 1.859600 0.000000 0.000000 0.000000 -28.905899 4.613000 14.185400 4.164100 12.375700 37.074299 -0.293900 12.787700 4.393400 0.535200 -4.687600 -13.019600 0.000000 0.000000 0.000000 14.983400 20.757200 -28.317101 -3.784600 -11.868200 35.267101 -1.441000 -2.101600 -23.521900 -1.475700 7.675900 -21.733801 -2.358300 -4.231800 4.791900 -0.198200 -5.766600 0.438500 1.471200 -2.857100 -2.013200 -1.608500 3.568200 -14.977200 -1.947800 4.966700 -4.008100 -0.070600 2.430500 1.252600 -0.000000 -0.000000 0.000000 -75.550598 3.144600 56.733799 133.732193 -51.374699 -96.774902 -0.000000 0.000000 -29.257500 32.853298 -0.035700 -0.023100 -7.125000 0.000000 -0.000000 4.951100 29.918900 -1.827900 -0.000000 -0.000000 0.000000 82.318100 -47.117401 38.393299 -73.379097 58.930000 -45.657600 0.000000 -0.000000 -12.625000 -50.247898 34.370998 -34.166599 7.125000 -0.000000 -0.000000 -9.093500 16.440901 -11.415200 
